<?xml version="1.0" encoding="utf-8"?>
<!-- Generator: Adobe Illustrator 26.2.1, SVG Export Plug-In . SVG Version: 6.00 Build 0)  -->
<svg version="1.1" id="Layer_1" xmlns="http://www.w3.org/2000/svg" xmlns:xlink="http://www.w3.org/1999/xlink" x="0px" y="0px"
	 viewBox="0 0 2951.73 2266.8" style="enable-background:new 0 0 2951.73 2266.8;" xml:space="preserve">
<style type="text/css">
	.st0{fill-rule:evenodd;clip-rule:evenodd;fill:#FFFFFF;}
	.st1{fill:#FFFFFF;}
</style>
<path class="st0" d="M1448.5,608.12c-102.14,76.1-404.21,295.7-515.04,397.89c-73.89,67.4-121.7,130.45-93.45,163.07
	c26.08,32.61,93.45,0,173.85-56.53c121.7-91.32,397.69-345.7,493.31-432.67c6.52,0,15.21-2.17,19.56-6.52l58.68-45.66
	c8.69-6.52,10.87-17.39,8.69-28.27l52.16-43.48c6.52-4.35,8.69-10.87,6.52-17.39c256.44-52.18,389-147.85,436.81-236.99
	c32.6-60.88,28.25-119.58-2.17-156.55v-2.17l0,0l0,0c-30.42-36.96-86.93-52.18-152.12-32.61
	c-95.62,30.44-217.32,141.33-319.46,382.67c-6.52-2.17-13.04,0-17.39,4.35l-54.33,43.48c-8.69-4.35-19.56-4.35-28.25,2.17
	l-56.5,47.83C1452.85,595.08,1450.68,601.6,1448.5,608.12L1448.5,608.12z M953.02,1075.59c8.69,13.05,6.52,32.61-4.35,43.49
	c-13.04,10.87-32.6,8.7-43.46-4.35c-10.87-13.05-8.69-32.61,4.35-43.48C922.6,1062.54,942.15,1064.71,953.02,1075.59L953.02,1075.59
	z M1661.47,482.02l402.04-330.48c-10.87-6.52-30.42-4.35-58.68,6.52C1928.78,186.32,1804.9,284.16,1661.47,482.02L1661.47,482.02z
	 M2076.55,166.75l-404.21,330.48c223.84-102.19,341.19-204.38,384.65-276.13C2072.21,199.37,2078.72,179.8,2076.55,166.75
	L2076.55,166.75z M2074.38,231.98c-43.46,71.75-160.81,173.94-375.96,276.13c217.32-52.18,330.32-139.15,373.79-217.42
	c17.39-32.61,23.91-63.05,19.56-91.32C2087.42,210.24,2083.07,221.11,2074.38,231.98L2074.38,231.98z M1654.96,453.75
	c143.43-191.33,265.13-284.83,343.36-315.27c13.04-4.35,23.91-8.7,34.77-8.7c-23.91-10.87-56.5-10.87-91.27,0
	C1857.06,158.06,1750.57,251.55,1654.96,453.75L1654.96,453.75z"/>
<path class="st0" d="M1085.58,195.02c-17.39-4.35-32.6,2.17-49.98,19.57c-15.21,19.57-36.94,6.52-54.33-6.52
	c-19.56-17.39-26.08-30.44-54.33-71.75c-43.46-58.7-89.1-56.53-108.66-30.44c-21.73,23.92-15.21,69.58,49.98,100.02
	c47.81,19.57,63.02,23.92,82.58,41.31c15.21,13.05,32.6,32.61,17.39,52.18c-15.21,17.39-17.39,34.79-8.69,52.18L1085.58,195.02z
	 M1993.97,940.78c8.69,15.22,6.52,32.61-10.86,52.18c-15.21,19.57,2.17,36.96,19.56,52.18c19.56,17.39,34.77,19.57,80.41,39.14
	c65.2,30.44,71.72,78.27,52.16,102.19c-21.73,23.92-67.37,28.27-110.83-30.44c-28.25-41.31-34.77-56.53-54.33-71.75
	c-17.39-13.05-39.12-28.27-54.33-8.7s-32.6,26.09-49.98,19.57L1993.97,940.78z M1113.84,203.71l430.29,352.23
	c-6.52,0-13.04,2.17-17.39,6.52l-56.5,47.83c-6.52,4.35-8.69,10.87-10.86,17.39c-21.73,17.39-56.5,41.31-95.62,71.75L972.59,375.47
	c-6.52-2.17-6.52-10.87-2.17-15.22l126.04-154.37C1100.8,201.54,1107.32,199.37,1113.84,203.71L1113.84,203.71z M1611.49,612.47
	l369.44,302.22c4.35,4.35,4.35,13.05,0,17.39l-126.04,154.37c-4.35,4.35-10.87,6.52-17.39,2.17l-391.17-323.96
	c28.25-26.09,54.33-47.83,71.72-65.23c6.52,0,15.21-2.17,19.56-6.52l58.68-45.66c8.69-8.7,10.87-19.57,8.69-28.27L1611.49,612.47z"
	/>
<path class="st1" d="M918.25,1975.72c8.69,4.35,17.39,8.7,23.91,13.05c6.52,6.52,10.87,13.05,13.04,21.74
	c2.17,8.7,2.17,17.39,0,28.26c-2.17,8.7-6.52,17.39-13.04,23.92c-6.52,4.35-13.04,8.7-21.73,10.87c-8.69,2.17-19.56,0-28.25-2.17
	l-23.91-6.52l-10.87,36.96l-28.25-8.7l36.94-130.45L918.25,1975.72z M896.52,2045.3c8.69,4.35,15.21,2.17,19.56,0
	c6.52-2.17,8.69-6.52,10.86-15.22c2.17-6.52,2.17-13.05,0-17.39c-4.35-6.52-8.69-10.87-17.39-13.05l-21.73-4.35l-13.04,45.66
	L896.52,2045.3z M1100.8,2149.66l-17.39-41.31l0,0l-26.08-4.35l-6.52,36.96l-26.08-4.35l21.73-134.8l52.16,8.7
	c10.86,2.17,19.56,6.52,28.25,10.87c6.52,6.52,10.86,13.05,15.21,21.74c2.17,6.52,2.17,15.22,0,26.09
	c0,10.87-4.35,17.39-10.87,23.92c-4.35,6.52-10.87,10.87-19.56,15.22l19.56,47.83L1100.8,2149.66z M1113.84,2064.87
	c2.17-8.7,2.17-15.22-2.17-19.57c-4.35-4.35-10.87-6.52-17.39-8.7l-23.91-4.35l-8.69,47.83l23.9,4.35c8.69,0,15.21,0,19.56-4.35
	C1109.49,2077.91,1113.84,2071.39,1113.84,2064.87L1113.84,2064.87z M1318.11,2149.66l-2.17,23.92l-93.45-6.52l8.69-136.98
	l93.45,8.7l-2.17,23.92l-65.2-4.35l-2.17,30.44l56.5,2.17l-2.17,26.09l-56.5-4.35l-2.17,30.44L1318.11,2149.66z M1522.39,2177.93
	l-2.17-82.62l-34.77,69.58h-13.04l-36.94-65.23l2.17,80.45l-26.08,2.17l-4.35-136.98l23.91-2.17l47.81,84.8l43.46-86.97h21.73
	l4.35,136.98h-26.08V2177.93z M1641.92,2036.6l28.25-2.17l8.69,136.98l-28.25,2.17L1641.92,2036.6z M1835.33,2156.18
	c-17.39,2.17-32.6-2.17-43.46-10.87c-10.87-10.87-17.39-23.92-19.56-43.48l-8.69-76.1l28.25-4.35l8.69,73.92
	c2.17,26.09,13.04,36.96,30.42,34.79c10.87-2.17,15.21-4.35,19.56-10.87s6.52-17.39,4.35-30.44l-8.69-73.92l28.25-2.17l8.69,73.92
	c2.17,21.74-2.17,36.96-8.69,47.83C1865.75,2147.49,1852.71,2154.01,1835.33,2156.18L1835.33,2156.18z M2096.11,2101.83
	l-17.39-80.45l-21.73,73.92l-10.87,2.17l-49.98-56.53l17.39,78.27l-26.08,6.52l-28.25-132.63l21.73-6.52l63.02,73.92l26.08-93.49
	l21.73-4.35l30.43,132.63L2096.11,2101.83z"/>
<path class="st1" d="M177.2,719.01v19.57H85.93V616.82h89.1v19.57h-65.2V669h58.68v17.39h-58.68V719h67.37V719.01z M240.22,740.75
	c-8.69,0-17.39-2.17-26.08-4.35c-8.69-2.17-17.39-6.52-21.73-10.87l8.69-17.39c4.35,4.35,10.87,6.52,17.39,10.87
	c6.52,2.17,15.21,2.17,21.73,2.17c8.69,0,15.21,0,19.56-4.35c4.35-2.17,6.52-6.52,6.52-10.87c0-2.17,0-6.52-2.17-8.7
	s-6.52-4.35-10.87-4.35c-2.17-2.17-8.69-4.35-15.21-4.35c-8.69-2.17-17.39-4.35-21.73-6.52c-6.52-2.17-10.86-6.52-15.21-10.87
	c-4.35-4.35-6.52-10.87-6.52-19.57c0-6.52,2.17-13.05,6.52-17.39c2.17-6.52,8.69-10.87,15.21-13.05c8.69-4.35,17.39-4.35,28.25-4.35
	c6.52,0,13.04,0,21.73,2.17c6.52,2.17,13.04,4.35,17.39,8.7l-6.52,17.39c-4.35-4.35-10.87-6.52-17.39-8.7
	c-4.35,0-10.87-2.17-15.21-2.17c-8.69,0-15.21,2.17-19.56,4.35c-4.35,4.35-6.52,6.52-6.52,13.05c0,2.17,0,6.52,2.17,8.7
	c2.17,2.17,6.52,2.17,10.87,4.35c2.17,2.17,8.69,2.17,15.21,4.35c8.69,2.17,15.21,4.35,21.73,6.52c6.52,2.17,10.87,6.52,15.21,10.87
	c4.35,4.35,6.52,10.87,6.52,17.39s-2.17,13.05-6.52,19.57c-4.35,4.35-8.69,8.7-17.39,13.05
	C259.78,738.58,251.09,740.75,240.22,740.75L240.22,740.75z M333.67,636.39h-39.12v-19.57h102.14v19.57h-39.12v102.19h-23.91
	L333.67,636.39L333.67,636.39z M414.07,616.82h52.16c13.04,0,26.08,4.35,34.77,8.7c10.87,4.35,17.39,10.87,23.91,21.74
	c6.52,8.7,8.69,19.57,8.69,30.44c0,13.05-2.17,23.92-8.69,32.61c-6.52,8.7-13.04,15.22-23.91,21.74
	c-8.69,4.35-21.73,6.52-34.77,6.52h-52.16V616.82z M466.23,719.01c8.69,0,17.39,0,23.91-4.35s10.87-8.7,15.21-15.22
	c4.35-6.52,4.35-13.05,4.35-21.74c0-8.7,0-15.22-4.35-21.74s-8.69-10.87-15.21-15.22c-6.52-2.17-15.21-4.35-23.91-4.35h-30.42v82.62
	L466.23,719.01L466.23,719.01z"/>
<path class="st1" d="M2535.09,719.01v19.57h-89.1v-15.22l47.81-45.66c6.52-4.35,8.69-8.7,10.86-13.05c2.17-4.35,4.35-8.7,4.35-10.87
	c0-6.52-2.17-10.87-6.52-13.05c-4.35-4.35-8.69-4.35-17.39-4.35c-10.86,0-21.73,4.35-28.25,10.87l-15.21-10.87
	c4.35-6.52,10.87-10.87,19.56-15.22s17.39-4.35,26.08-4.35c13.04,0,23.9,2.17,32.6,8.7c6.52,6.52,10.87,15.22,10.87,26.09
	c0,6.52-2.17,10.87-4.35,17.39c-2.17,6.52-8.69,13.05-15.21,19.57l-32.6,30.44h56.5V719.01z M2598.11,740.75
	c-8.69,0-17.39-2.17-26.08-6.52c-6.52-6.52-13.04-13.05-17.39-21.74c-4.35-10.87-6.52-21.74-6.52-34.79s2.17-23.92,6.52-32.61
	c4.35-8.7,10.87-17.39,17.39-21.74c8.69-4.35,17.39-6.52,26.08-6.52c10.87,0,19.56,2.17,26.08,6.52
	c8.69,4.35,15.21,13.05,19.56,21.74c4.35,8.7,6.52,19.57,6.52,32.61c0,13.05-2.17,23.92-6.52,34.79
	c-4.35,8.7-10.87,15.22-19.56,21.74C2617.67,738.58,2608.98,740.75,2598.11,740.75L2598.11,740.75z M2598.11,721.18
	c8.69,0,15.21-4.35,21.73-10.87c4.35-6.52,6.52-17.39,6.52-32.61c0-13.05-2.17-23.92-6.52-30.44c-6.52-8.7-13.04-10.87-21.73-10.87
	s-15.21,2.17-19.56,10.87c-4.35,6.52-8.69,17.39-8.69,30.44c0,15.22,4.35,26.09,8.69,32.61
	C2582.9,716.84,2589.42,721.18,2598.11,721.18L2598.11,721.18z M2752.41,719.01v19.57h-89.1v-15.22l47.81-45.66
	c4.35-4.35,8.69-8.7,10.87-13.05c2.17-4.35,2.17-8.7,2.17-10.87c0-6.52-2.17-10.87-6.52-13.05c-2.17-4.35-8.69-4.35-15.21-4.35
	c-13.04,0-21.73,4.35-28.25,10.87l-17.39-10.87c6.52-6.52,10.87-10.87,19.56-15.22s17.39-4.35,28.25-4.35
	c13.04,0,21.73,2.17,30.42,8.7c8.69,6.52,10.87,15.22,10.87,26.09c0,6.52,0,10.87-2.17,17.39c-4.35,6.52-8.69,13.05-17.39,19.57
	l-32.6,30.44h58.68V719.01z M2815.43,740.75c-10.87,0-19.56-2.17-26.08-6.52c-8.69-6.52-15.21-13.05-19.56-21.74
	c-4.35-10.87-6.52-21.74-6.52-34.79s2.17-23.92,6.52-32.61c4.35-8.7,10.87-17.39,19.56-21.74c6.52-4.35,15.21-6.52,26.08-6.52
	c8.69,0,17.39,2.17,26.08,6.52c6.52,4.35,13.04,13.05,17.39,21.74c4.35,8.7,6.52,19.57,6.52,32.61c0,13.05-2.17,23.92-6.52,34.79
	c-4.35,8.7-10.87,15.22-17.39,21.74C2832.82,738.58,2824.12,740.75,2815.43,740.75L2815.43,740.75z M2815.43,721.18
	c8.69,0,15.21-4.35,19.56-10.87s8.69-17.39,8.69-32.61c0-13.05-4.35-23.92-8.69-30.44c-4.35-8.7-10.87-10.87-19.56-10.87
	s-15.21,2.17-21.73,10.87c-4.35,6.52-6.52,17.39-6.52,30.44c0,15.22,2.17,26.09,6.52,32.61
	C2800.22,716.84,2806.74,721.18,2815.43,721.18L2815.43,721.18z"/>
<path class="st1" d="M555.33,1371.28l117.35,50.01c28.25,10.87,49.98,26.09,67.37,45.66c17.39,19.57,26.08,43.48,30.43,67.4
	c4.35,23.92,0,47.83-10.87,73.92c-10.87,26.09-26.08,45.66-45.64,60.88c-21.73,13.05-43.46,21.74-69.54,23.92
	c-26.08,0-52.16-4.35-80.41-15.22l-117.35-50.01L555.33,1371.28z M581.41,1627.84c26.08,10.87,49.98,10.87,69.54,4.35
	c21.73-8.7,39.12-23.92,47.81-47.83c10.87-26.09,10.87-47.83,2.17-69.58c-8.69-19.57-26.08-36.96-52.16-47.83l-54.33-21.74
	l-67.37,158.72L581.41,1627.84z M1085.58,1793.09l-13.04,52.18l-208.62-56.53l69.54-269.61l204.28,54.36l-13.04,50.01l-141.26-36.96
	l-15.21,58.7l123.87,32.61l-10.87,47.83l-126.04-32.61l-15.21,63.05L1085.58,1793.09z M1333.33,1875.71
	c-21.73,0-43.46-4.35-63.02-10.87c-21.73-6.52-36.94-15.22-49.98-23.92l23.91-47.83c10.86,8.7,26.08,15.22,41.29,21.74
	c17.39,6.52,32.6,8.7,49.98,10.87c17.39,0,32.6-2.17,41.29-8.7c8.69-4.35,13.04-10.87,13.04-19.57c0-6.52-2.17-13.05-6.52-17.39
	c-4.35-4.35-10.87-8.7-19.56-10.87c-8.69-4.35-19.56-6.52-32.6-10.87c-21.73-4.35-39.12-10.87-52.16-17.39
	c-13.04-4.35-23.91-13.04-32.6-23.92c-10.87-13.05-15.21-28.27-13.04-45.66c0-17.39,4.35-30.44,15.21-43.48
	c8.69-13.05,21.73-23.92,39.12-30.44c19.56-6.52,41.29-8.7,65.2-8.7c17.39,0,34.77,4.35,52.16,8.7
	c17.39,4.35,32.6,10.87,43.46,19.57l-21.73,47.83c-23.91-15.22-49.98-23.92-76.06-23.92c-17.39-2.17-30.42,2.17-39.12,6.52
	c-8.69,6.52-15.21,13.05-15.21,23.92c0,8.7,4.35,15.22,15.21,21.74c8.69,4.35,23.91,8.7,43.46,15.22
	c21.73,4.35,39.12,10.87,52.16,17.39c13.04,4.35,26.08,13.04,34.77,23.92c8.69,10.87,13.04,26.09,13.04,45.66
	c-2.17,15.22-6.52,30.44-15.21,41.31c-8.69,13.05-23.91,23.92-41.29,30.44C1381.14,1873.53,1359.4,1877.88,1333.33,1875.71
	L1333.33,1875.71z M1583.24,1597.4l63.02-8.7l32.6,278.3l-65.2,6.52L1583.24,1597.4z M2009.18,1660.46l56.5-15.22l28.25,110.89
	c-10.87,15.22-26.08,26.09-43.46,36.96c-17.39,10.87-36.94,19.57-56.5,23.92c-28.25,8.7-54.33,8.7-80.41,2.17
	c-23.91-6.52-47.81-17.39-65.2-34.79c-17.39-19.57-30.43-41.31-36.94-67.4c-6.52-28.27-6.52-52.18,0-78.27
	c6.52-23.92,21.73-45.66,41.29-63.05c19.56-17.39,43.46-30.44,71.71-36.96c21.73-6.52,45.64-8.7,67.37-4.35
	c19.56,2.17,39.12,10.87,56.5,21.74l-30.43,47.83c-23.91-15.22-49.98-19.57-78.23-13.05c-17.39,4.35-30.42,13.05-43.46,21.74
	c-10.86,10.87-17.39,23.92-21.73,39.14c-4.35,15.22-4.35,30.44,0,47.83s10.87,30.44,21.73,41.31
	c10.87,13.05,23.91,19.57,39.12,23.92c15.21,4.35,32.6,4.35,47.81,0c19.56-6.52,34.77-13.05,45.64-26.09L2009.18,1660.46z
	 M2393.83,1369.11l110.83,256.56l-47.81,19.57l-195.59-97.84l67.37,154.37l-58.68,26.09l-110.83-256.56l49.98-21.74l193.41,100.02
	l-67.37-154.37L2393.83,1369.11z"/>
</svg>
