<?xml version="1.0" encoding="utf-8"?>
<!-- Generator: Adobe Illustrator 26.2.1, SVG Export Plug-In . SVG Version: 6.00 Build 0)  -->
<svg version="1.1" id="Capa_1" xmlns="http://www.w3.org/2000/svg" xmlns:xlink="http://www.w3.org/1999/xlink" x="0px" y="0px"
	 viewBox="0 0 512 512" style="enable-background:new 0 0 512 512;" xml:space="preserve">
<style type="text/css">
	.st0{fill:#1F1E33;}
</style>
<g>
	<g>
		<path class="st0" d="M256,0C114.84,0,0,114.84,0,256c0,141.15,114.84,256,256,256c141.15,0,256-114.85,256-256
			C512,114.84,397.17,0,256,0z M370.2,197.41c0.11,2.54,0.18,5.09,0.18,7.65c0,77.86-59.25,167.62-167.66,167.62
			c-33.28,0-64.25-9.72-90.32-26.45c4.61,0.55,9.3,0.82,14.05,0.82c27.61,0,53.01-9.42,73.18-25.22
			c-25.78-0.47-47.55-17.51-55.04-40.93c3.59,0.68,7.29,1.06,11.07,1.06c5.37,0,10.59-0.7,15.53-2.05
			c-26.95-5.4-47.26-29.21-47.26-57.78c0-0.25,0-0.51,0.01-0.74c7.94,4.4,17.02,7.06,26.68,7.36c-15.8-10.55-26.2-28.59-26.2-49.03
			c0-10.81,2.9-20.93,7.97-29.64c29.05,35.66,72.48,59.11,121.44,61.58c-1.01-4.32-1.52-8.81-1.52-13.44
			c0-32.53,26.38-58.92,58.91-58.92c16.95,0,32.24,7.16,43.01,18.6c13.44-2.64,26.02-7.53,37.43-14.3
			c-4.43,13.77-13.75,25.31-25.94,32.61c11.93-1.42,23.31-4.58,33.84-9.27C391.71,178.74,381.72,189.13,370.2,197.41L370.2,197.41z"
			/>
	</g>
</g>
</svg>
